PathFileType	4	(X/Y/Z)	Formatted/subject01/trials/walk2/markers.trc
DataRate	CameraRate	NumFrames	NumMarkers	Units	OrigDataRate	OrigDataStartFrame	OrigNumFrames
200.00000000000426	200.00000000000426	4	64	m	200.00000000000426	55	223
Frame#	Time	CLAV			C7			RACR			RASH			RPSH			RLEL			RMEL			RUA1			RUA2			RUA3			RFAsuperior			RFAradius			RFAulna			RASI			RPSI			RCAL			RTOE			RMT5			RTH1			RTH2			RTH3			RTB1			RTB2			RTB3			RLFC			RMFC			RLMAL			RMMAL			RHJC			RKJC			REJC			RAJC			RSJC			LACR			LASH			LPSH			LLEL			LMEL			LUA1			LUA2			LUA3			LFAsuperior			LFAradius			LFAulna			LASI			LPSI			LCAL			LTOE			LMT5			LTH1			LTH2			LTH3			LTB1			LTB2			LTB3			LLFC			LMFC			LLMAL			LMMAL			LHJC			LKJC			LEJC			LAJC			LSJC			
		X1	Y1	Z1	X2	Y2	Z2	X3	Y3	Z3	X4	Y4	Z4	X5	Y5	Z5	X6	Y6	Z6	X7	Y7	Z7	X8	Y8	Z8	X9	Y9	Z9	X10	Y10	Z10	X11	Y11	Z11	X12	Y12	Z12	X13	Y13	Z13	X14	Y14	Z14	X15	Y15	Z15	X16	Y16	Z16	X17	Y17	Z17	X18	Y18	Z18	X19	Y19	Z19	X20	Y20	Z20	X21	Y21	Z21	X22	Y22	Z22	X23	Y23	Z23	X24	Y24	Z24	X25	Y25	Z25	X26	Y26	Z26	X27	Y27	Z27	X28	Y28	Z28	X29	Y29	Z29	X30	Y30	Z30	X31	Y31	Z31	X32	Y32	Z32	X33	Y33	Z33	X34	Y34	Z34	X35	Y35	Z35	X36	Y36	Z36	X37	Y37	Z37	X38	Y38	Z38	X39	Y39	Z39	X40	Y40	Z40	X41	Y41	Z41	X42	Y42	Z42	X43	Y43	Z43	X44	Y44	Z44	X45	Y45	Z45	X46	Y46	Z46	X47	Y47	Z47	X48	Y48	Z48	X49	Y49	Z49	X50	Y50	Z50	X51	Y51	Z51	X52	Y52	Z52	X53	Y53	Z53	X54	Y54	Z54	X55	Y55	Z55	X56	Y56	Z56	X57	Y57	Z57	X58	Y58	Z58	X59	Y59	Z59	X60	Y60	Z60	X61	Y61	Z61	X62	Y62	Z62	X63	Y63	Z63	X64	Y64	Z64	

56	3.655	1.346230532632941	1.46336152545022	-0.4595776123338768	1.223432795705726	1.532557219841737	-0.4785486510562579	1.307245759429515	1.48253286911031	-0.3214272967218144	1.365321046895529	1.442846387907643	-0.3022094690961356	1.268298456092415	1.460538316569634	-0.2864719539774627	1.203596954527149	1.141967856960061	-0.2152096655041548	1.207007934999686	1.127640351964627	-0.2953744454054363	1.220131430845927	1.365632109759619	-0.2494448421213102	1.272996581581957	1.302811806393473	-0.2499943041059802	1.231507819838849	1.20275456890323	-0.2230490178853457	1.271490937713958	1.05574087363086	-0.2316953664002121	1.333911558189324	0.8945806618550197	-0.2365317743381705	1.268775636972877	0.8809852108265717	-0.2191961538839758	1.336222165001614	1.042545819806087	-0.3736934654375028	1.162775635678956	1.072443901338852	-0.4365933658284338	1.182146183170915	0.05076692956569392	-0.4391831677736032	1.422929980272171	0.04401539349196984	-0.4649992459065097	1.378592757936285	0.01360015110445466	-0.3705628761375301	1.271179551754158	0.9092557711337901	-0.3133099362892608	1.235939172524349	0.7600151089068662	-0.3378278484922834	1.294327362769151	0.6145436498803813	-0.3525394047205476	1.355851316550412	0.3600178770588177	-0.4257351511107987	1.275939728281857	0.3189326201946542	-0.3584493526972737	1.313365634772306	0.1760840754981339	-0.4402558604689355	1.335096244230285	0.5276898684868493	-0.358761519797948	1.340087217461994	0.5305469169801733	-0.472384476539388	1.262218905220715	0.06102260028901763	-0.378417752813564	1.271046626677425	0.06436332944068679	-0.4826668496262889	1.255110475238833	0.929786540457365	-0.409121251004654	1.340841775120607	0.5273410598466139	-0.4178125559813816	1.206858852600256	1.123492849440259	-0.2598393693727121	1.251553144032359	0.05177710390418921	-0.4390616641833899	1.31987081423381	1.451134171889353	-0.2948372301387933	1.254266003958149	1.506060981324589	-0.647064086214806	1.306767002478284	1.463760113926309	-0.6867091308604472	1.20198260441092	1.48286739688126	-0.6697126145322805	1.182227367425623	1.142212850174565	-0.7380218552517238	1.185873918798974	1.134307817220432	-0.6512856335483328	1.17805618542694	1.380174811625575	-0.6986159426075912	1.229975653893472	1.304549677266222	-0.7138058167520738	1.191801238397383	1.213522538231752	-0.7265891461737612	1.231986021536052	1.068709749010534	-0.7288879533993515	1.298508601397558	0.897810848057593	-0.709176311038838	1.231006336405887	0.8779962760258999	-0.723108755721423	1.319649790052899	1.029442723973258	-0.6229772268067829	1.155782541657649	1.071056339847738	-0.5492109500528386	0.947029222776733	0.3172855256525347	-0.5773321755385479	1.06259701871338	0.1110350859488829	-0.5569470151856212	0.9988412656449024	0.1210778962531363	-0.6494402998710537	1.279412634363591	0.9115899988921531	-0.6686284778237538	1.245455465177651	0.742889519280776	-0.6510075231351862	1.327748095504061	0.6279712267002093	-0.6716886930677157	1.304184971137421	0.4125572660812346	-0.61875797625601	1.167479986271551	0.4059667093891735	-0.6661083612479106	1.121564547894784	0.2967853002842356	-0.6017889500137215	1.360456038009586	0.5483978143343367	-0.7021222299332824	1.383619872100479	0.5333032753309624	-0.5917644457898646	0.989331463139984	0.2599947474111419	-0.6436572927336058	1.011077286598534	0.2532219387245881	-0.5414897267047732	1.24592051248136	0.9220261973245717	-0.5683350698834272	1.378327044761653	0.5317711167826549	-0.6461978521512499	1.187729961064159	1.131708618794432	-0.6893141949825017	0.9830728794381332	0.259373194721826	-0.5817108202459691	1.261316769816565	1.472047897908019	-0.6793368919031049	
57	3.66	1.352131959108223	1.46408948622446	-0.4596733587435229	1.229341252802838	1.533378828351827	-0.4783457485090797	1.313518465930781	1.48332699720045	-0.3214280008494781	1.37161123670619	1.44359881855311	-0.3023496752373872	1.27464370243798	1.461372516740238	-0.2863668782751411	1.211670653204623	1.142325993527453	-0.2143731839064203	1.214860109457868	1.127898940035692	-0.2945292293437645	1.227019122292492	1.366016427166463	-0.2489874670938446	1.28017965306704	1.303446859659536	-0.2496384475810732	1.239264063205055	1.203233014782025	-0.2224003056514305	1.280594967352914	1.057000010829302	-0.2311540146639773	1.345295999696105	0.8967488209048421	-0.2362206805721923	1.280455678311147	0.8822324772509127	-0.2185272708518943	1.341595751373539	1.043250095664797	-0.3732960687366629	1.168228853256446	1.073104196209523	-0.4364359341192152	1.182318180137762	0.05108332762956266	-0.4391836735364046	1.42310160529452	0.04394469977777695	-0.4648988876749601	1.378679398263522	0.01365145816578363	-0.3704632417343036	1.276642800608435	0.9097667480498451	-0.3132792132483946	1.239945424610913	0.7608777678990027	-0.3377978142183766	1.296921026461276	0.6148595448742623	-0.3526307295252519	1.356964202948079	0.3599127359137453	-0.425830153320326	1.276921933661774	0.3191002002423586	-0.3585337121149159	1.31391837962191	0.1761033530575463	-0.4402764463110677	1.336849571926639	0.5276220042695234	-0.3589329926299458	1.34172011711109	0.5304680746626793	-0.4725614508236722	1.26241543945588	0.06122481983847339	-0.3783938773662694	1.27126202613641	0.0644943365249635	-0.4826436327059899	1.260646368743341	0.9304812861500245	-0.4090631253393451	1.342464909855108	0.5272843101873615	-0.417979804873828	1.214859051805015	1.123802158804463	-0.2589879573655732	1.251726566487003	0.05198619101985635	-0.4390347660765055	1.326186795278247	1.45192490746887	-0.294862534000423	1.259719142735434	1.506815287559587	-0.6469332669592657	1.312083960824617	1.464462317441395	-0.6867025961196513	1.20735902381495	1.483657911483493	-0.6694411754004256	1.186246238643248	1.143178919023674	-0.7373661844167614	1.190250996148807	1.135309243266925	-0.6506425477361568	1.183018120278618	1.381174484981231	-0.6980748412918329	1.234625321592767	1.305373677662943	-0.7134520585842836	1.196100889849642	1.214463484897072	-0.7260156791020229	1.235205978422586	1.069159019751963	-0.7285676014217844	1.299953641591095	0.8975435312644344	-0.7091742765828961	1.232120674427204	0.87847596280017	-0.7225310148539422	1.32545702887352	1.030579054246282	-0.6226306125923007	1.161427558784979	1.071912258557365	-0.5490675044961266	0.9613275114900863	0.3143311305535119	-0.5765420196552205	1.081549043476945	0.1107094832001905	-0.556649255290477	1.017527403354652	0.1194969644793434	-0.6490866479887597	1.285417956076531	0.9130280657658393	-0.668582110934967	1.25410950191998	0.7438257305651573	-0.6508680017185569	1.338204229988924	0.6302018582805169	-0.6714518333226125	1.317720284034529	0.4146494859904722	-0.618298827870698	1.181115306378767	0.4061854341751537	-0.6656400064587592	1.136653639012902	0.2964829176944372	-0.6011860519654262	1.372168337507934	0.5511335253459833	-0.7018257654360641	1.395529928762053	0.5364722832431223	-0.5914512535565692	1.004921269962852	0.2578876974993066	-0.6430080979356838	1.026754268344466	0.2515299530865977	-0.5408324521520528	1.251732819221739	0.9229981484906855	-0.5683059265853748	1.390272520166699	0.5348038301782085	-0.6458858297836347	1.191930344283968	1.132683407648371	-0.6886774920274988	0.9986709667686511	0.2572592265572912	-0.5810608592109771	1.266659519396674	1.472788406357155	-0.6792154548826872	
58	3.665	1.35803071131053	1.464784666619455	-0.4597745633287625	1.235253887932037	1.534174619791485	-0.4781624579022449	1.319775579611867	1.48409306172125	-0.3214394866472529	1.377881124760375	1.444320076044032	-0.3024938819729596	1.280968715935001	1.462181609191133	-0.286276376081529	1.219701285175508	1.142673458540611	-0.2135593647963421	1.22267763207303	1.12814449554727	-0.2937051988570271	1.233879828678398	1.366382531811	-0.248550129951865	1.287330439250921	1.304061664100607	-0.2492972999984812	1.246980638382756	1.203697221268492	-0.2217711531637759	1.289664920746924	1.058282771358561	-0.2306461569581724	1.356681621374977	0.8989941528960056	-0.2359599528825553	1.292157969602777	0.8835412128139115	-0.2179057771131356	1.346946230609104	1.043924772498182	-0.3729077090562355	1.173661642320508	1.073734275019345	-0.4362941137791481	1.182488270212471	0.0513962103943491	-0.4391937297139779	1.423271471733966	0.04387439109239872	-0.4648015834988215	1.378762570368662	0.01370376460728431	-0.370367504979222	1.282085131596613	0.9102483145863912	-0.3132673275831369	1.243922726692763	0.7617278297713201	-0.3377843431282117	1.29946913792618	0.6151721346152899	-0.3527369500726765	1.358038604006932	0.3598146758453082	-0.425934223485572	1.277867917456357	0.3192676211151028	-0.3586301648408059	1.314454478995026	0.1761262131257649	-0.4403043391307714	1.338546875396489	0.5275559076288991	-0.3591184042059145	1.34329678027061	0.530391666826961	-0.4727522271285698	1.262605961065168	0.06142717558135963	-0.3783774099772658	1.271475723918738	0.06462420889545256	-0.4826274440710777	1.266164463933562	0.9311470277274148	-0.4090238514693829	1.344030397624498	0.5272316339503424	-0.4181603159378661	1.222820228285945	1.124099643664745	-0.2581582655016524	1.251897886603826	0.05219298445271425	-0.4390155869525855	1.332482506846129	1.452687311246792	-0.294896791338119	1.26519214997193	1.507539026362892	-0.6468172381550059	1.317422059672034	1.465130157387451	-0.6867042304978197	1.212756658140631	1.484420613186321	-0.6691893241350746	1.19021591712286	1.14414314544632	-0.7367571702922937	1.194559360505865	1.136300557540468	-0.6500473821895553	1.187984049745139	1.382167087183854	-0.6975686294170578	1.239261100081786	1.306179331420233	-0.7131265698984909	1.200367038346883	1.215398237888818	-0.7254831296694877	1.238388200038637	1.06962834167317	-0.7282792452791554	1.301408248090363	0.8973377807688822	-0.7091828322718302	1.233267328606658	0.8789976247182271	-0.7219789186497472	1.331253087513467	1.031699595447262	-0.622292950640646	1.167057398507529	1.072744192210115	-0.5489393651975412	0.975764780149192	0.3110017943853687	-0.5756944763251196	1.100751787686552	0.1102186382150149	-0.5563273329284846	1.036468719407203	0.1176964692870986	-0.6486984917124159	1.291370361707573	0.9144168949770431	-0.6685635604967577	1.262669618963782	0.7447673875441055	-0.6507099558723676	1.348503317826446	0.6324343400460919	-0.6712005474893155	1.331202442901336	0.4167148016295454	-0.6178248098733119	1.194725579128582	0.4062510020573574	-0.6651357159821224	1.151841553923142	0.295997466953562	-0.6005531129354923	1.383680580425806	0.5538731152244294	-0.7015094863552271	1.407264121201506	0.539664077060038	-0.591123034842898	1.020667215490088	0.2554812062424167	-0.6423121498164437	1.042602617304335	0.2495491916868822	-0.5401328335424962	1.257534921641115	0.9239499457712549	-0.5682954794328228	1.402030180589464	0.5378606950764768	-0.6455563829342474	1.196068915736684	1.133650886369686	-0.6880877909122814	1.014434976108744	0.2548326406192659	-0.5803632982832128	1.272023441757788	1.473497392590211	-0.6791071398629791	
59	3.67	1.363927703559974	1.465443142482713	-0.4598821169187418	1.24117120636136	1.534940391127082	-0.4779985032406612	1.326018995755768	1.484826502268734	-0.3214621837472897	1.384132897722287	1.445005694017478	-0.3026430888805692	1.287275698935773	1.462960796253746	-0.286200637878516	1.227688187625696	1.143006495938721	-0.212767284801734	1.230459451450493	1.128373115767554	-0.292901474791891	1.240714887931192	1.366726680132099	-0.2481327830897577	1.294449804141278	1.304651941665979	-0.2489707628557341	1.254657480517898	1.204143226675812	-0.2211609486466299	1.298698131675941	1.059585559169018	-0.2301706305360397	1.368063022968919	0.9013144683424305	-0.2357484640205702	1.303877799185883	0.8849102702091811	-0.2173308748884179	1.352275788321217	1.044569615015854	-0.3725282459506462	1.179075921386063	1.074331430111048	-0.4361681056180644	1.182656458311828	0.05170500271396806	-0.4392130584459933	1.423439765023381	0.04380359186054299	-0.4647053512340851	1.378841735268757	0.01375599377375079	-0.3702740969783209	1.287508545015069	0.9106987020357159	-0.3132707649387361	1.247873122641711	0.7625639771587366	-0.3377845200140765	1.301973518682054	0.6154804013765904	-0.352855184280476	1.359075885357556	0.3597228161707918	-0.4260448802512593	1.278778355617378	0.3194341107627344	-0.3587368876091445	1.3149745492942	0.1761518273362493	-0.4403379460075681	1.340189814547046	0.5274907252131018	-0.3593148571040464	1.344819548119948	0.5303171486395457	-0.4729538721306578	1.262790135943356	0.06162877104008907	-0.3783674759485649	1.271688083132771	0.0647523184498569	-0.4826173359534793	1.271667403716452	0.9317822405230731	-0.4089999578935223	1.345540269455705	0.5271823483549501	-0.4183511471797067	1.230741408231804	1.124381444392851	-0.2573493624578427	1.252067112165358	0.05239680114027068	-0.4390033493584988	1.338760142950745	1.453416761660058	-0.2949406227086574	1.270684333607109	1.508228724992023	-0.6467161712124391	1.322780452196145	1.465760463843378	-0.6867147838906363	1.21817467750671	1.485151974258547	-0.6689569368084188	1.194142282546409	1.145101251248087	-0.7361948199064219	1.198801319430427	1.137278526093104	-0.649499621742007	1.192955097861371	1.383148133902294	-0.6971001647815573	1.243885764531362	1.306962901076449	-0.7128291800420411	1.204604160113677	1.216322605189387	-0.7249919045004216	1.241539442067999	1.070112829277141	-0.7280198140809349	1.302877618515867	0.8971864321647828	-0.7091962619535739	1.234451145313624	0.8795541522676106	-0.721452139293393	1.337039499523415	1.032797254421423	-0.6219635991866419	1.172673663163997	1.073546336055726	-0.5488266325230691	0.9903492739356177	0.3073139274009465	-0.5747928831954674	1.120183354354152	0.1095766703254122	-0.5559832360872314	1.055647055004163	0.1156953796862776	-0.6482778148121072	1.297273317045785	0.9157499162572851	-0.6685691480342325	1.271135045751646	0.7457060590011861	-0.6505326132343013	1.358643660425311	0.6346567483805284	-0.6709359152715388	1.344625215084163	0.4187468370368589	-0.6173393052851331	1.208309327640147	0.4061640421353804	-0.6645981603959811	1.167123918102654	0.295335938953373	-0.59989354059731	1.394990195554533	0.556602805297966	-0.7011757727117798	1.418818893959978	0.5428639066903155	-0.5907824548165783	1.036568096524139	0.2527902285221827	-0.6415724511211212	1.058620754040943	0.2472935618090973	-0.5393940273950588	1.263329042856852	0.9248756903844649	-0.5682999571601363	1.41359634183396	0.5409271166128855	-0.6452122137644266	1.200149629549456	1.134607426772931	-0.6875445885358539	1.030364418657007	0.2521085615587568	-0.5796210882431987	1.277407697424602	1.474171531485958	-0.6790123177187245	
